<?xml version="1.0" encoding="utf-8"?>
<!-- Generator: Adobe Illustrator 19.0.1, SVG Export Plug-In . SVG Version: 6.00 Build 0)  -->
<svg fill="#fff" version="1.1" id="Слой_1" xmlns="http://www.w3.org/2000/svg" xmlns:xlink="http://www.w3.org/1999/xlink" x="0px" y="0px"
	 viewBox="0 0 136 36" style="enable-background:new 0 0 136 36;" xml:space="preserve">
<path d="M1.9,9l26.6,8.9c1.2,0.4,2.5,0.4,3.6,0L58.6,9c1.2-0.4,1.2-2,0-2.4c-18.4-6.2-38.4-6.2-56.8,0l0,0C0.7,6.9,0.7,8.6,1.9,9"/>
<path d="M31.2,20.7c-0.3,0.1-0.6,0.2-1,0.2c-0.3,0-0.7-0.1-1-0.2L8.2,13.7c-0.8-0.3-1.6-0.3-2.4,0L1.9,15c-1.2,0.4-1.2,2,0,2.4
	l26.6,8.9c1.2,0.4,2.5,0.4,3.6,0l26.6-8.9c1.2-0.4,1.2-2,0-2.4l-3.9-1.3c-0.8-0.3-1.6-0.3-2.4,0L31.2,20.7z"/>
<path d="M31.2,29.2c-0.3,0.1-0.6,0.2-1,0.2c-0.3,0-0.7-0.1-1-0.2L8.2,22.1c-0.8-0.3-1.6-0.3-2.4,0l-3.9,1.3c-1.2,0.4-1.2,2,0,2.4
	l26.6,8.9c1.2,0.4,2.5,0.4,3.6,0l26.6-8.9c1.2-0.4,1.2-2,0-2.4l-3.9-1.3c-0.8-0.3-1.6-0.3-2.4,0L31.2,29.2z"/>
<g>
	<path d="M76.4,5.2H78l4.5,10.2h-1.9l-1-2.5h-4.8l-1,2.5h-1.8L76.4,5.2z M78.9,11.4l-1.8-4.1l-1.7,4.1H78.9z"/>
	<path d="M86.9,13.9l1.1-1.3c1,0.8,1.9,1.3,3.2,1.3c1.1,0,1.8-0.5,1.8-1.3c0-0.7-0.4-1.1-2.3-1.6c-2.2-0.5-3.4-1.1-3.4-3
		c0-1.7,1.5-2.9,3.5-2.9c1.5,0,2.7,0.4,3.7,1.3l-1,1.3c-0.9-0.7-1.8-1-2.8-1c-1,0-1.7,0.5-1.7,1.2c0,0.8,0.5,1.1,2.4,1.6
		c2.1,0.5,3.3,1.3,3.3,3c0,1.9-1.5,3-3.6,3C89.6,15.5,88.1,15,86.9,13.9z"/>
	<path d="M99.5,13.9l1.1-1.3c1,0.8,1.9,1.3,3.2,1.3c1.1,0,1.8-0.5,1.8-1.3c0-0.7-0.4-1.1-2.3-1.6c-2.2-0.5-3.4-1.1-3.4-3
		c0-1.7,1.5-2.9,3.5-2.9c1.5,0,2.7,0.4,3.7,1.3l-1,1.3c-0.9-0.7-1.8-1-2.8-1c-1,0-1.7,0.5-1.7,1.2c0,0.8,0.5,1.1,2.4,1.6
		c2.1,0.5,3.3,1.3,3.3,3c0,1.9-1.5,3-3.6,3C102.2,15.5,100.7,15,99.5,13.9z"/>
	<path d="M113,5.2h7.5v1.6h-5.7v2.6h5.1v1.6h-5.1v2.7h5.8v1.6H113V5.2z"/>
	<path d="M128.7,6.9h-3.2V5.2h8.2v1.7h-3.2v8.5h-1.8V6.9z"/>
</g>
<g>
	<path d="M71.9,29.5l1.1-1.3c1,0.8,1.9,1.3,3.2,1.3c1.1,0,1.8-0.5,1.8-1.3c0-0.7-0.4-1.1-2.3-1.6c-2.2-0.5-3.4-1.1-3.4-3
		c0-1.7,1.5-2.9,3.5-2.9c1.5,0,2.7,0.4,3.7,1.3l-1,1.3c-0.9-0.7-1.8-1-2.8-1c-1,0-1.7,0.5-1.7,1.2c0,0.8,0.5,1.1,2.4,1.6
		c2.1,0.5,3.3,1.3,3.3,3c0,1.9-1.5,3-3.6,3C74.6,31.2,73.1,30.6,71.9,29.5z"/>
	<path d="M87.7,22.5h-3.2v-1.7h8.2v1.7h-3.2V31h-1.8V22.5z"/>
	<path d="M100.3,20.8h1.7l4.5,10.2h-1.9l-1-2.5h-4.8l-1,2.5h-1.8L100.3,20.8z M102.9,27l-1.8-4.1L99.4,27H102.9z"/>
	<path d="M110.6,25.9c0-2.9,2.2-5.3,5.2-5.3c1.9,0,3,0.7,4,1.6l-1.1,1.3c-0.8-0.8-1.7-1.3-2.8-1.3c-1.9,0-3.4,1.6-3.4,3.6
		c0,2,1.4,3.6,3.4,3.6c1.2,0,2-0.5,2.9-1.3l1.1,1.2c-1.1,1.1-2.2,1.8-4.1,1.8C112.8,31.2,110.6,28.9,110.6,25.9z"/>
	<path d="M125.2,20.8h1.8V26l4.8-5.1h2.2l-4.2,4.4l4.4,5.8h-2.2l-3.5-4.6l-1.6,1.6V31h-1.8V20.8z"/>
</g>
</svg>
